<svg width="85" height="40" viewBox="0 0 85 40" fill="none" xmlns="http://www.w3.org/2000/svg">
<path d="M43.6586 7.55019H32.282V32.0444H25.2586V7.55019H15.6892V1.31689H43.6586V7.55019Z" fill="white"/>
<path d="M61.6289 9.26215L51.6644 17.9975L62.0679 32.0883H53.4203L46.4407 22.6067L45.036 23.8358V32.0444H38.1004V1.36079H45.036V14.837L51.4888 9.26215H61.6289Z" fill="white"/>
<path d="M77.8993 20.6752C77.8993 19.8851 77.7676 19.1535 77.5042 18.4804C77.2701 17.8073 76.9189 17.222 76.4507 16.7245C76.0117 16.2271 75.4703 15.8466 74.8265 15.5832C74.212 15.2906 73.5389 15.1443 72.8073 15.1443C72.0757 15.1443 71.388 15.2906 70.7441 15.5832C70.1296 15.8466 69.5882 16.2271 69.12 16.7245C68.681 17.1928 68.3298 17.7781 68.0665 18.4804C67.8324 19.1535 67.7153 19.8851 67.7153 20.6752C67.7153 22.2848 68.1835 23.6017 69.12 24.6259C70.0564 25.6209 71.2709 26.1184 72.7634 26.1184C74.2559 26.1184 75.485 25.6063 76.4507 24.582C77.4164 23.5578 77.8993 22.2555 77.8993 20.6752ZM71.7538 8.86708C74.329 8.86708 76.3775 9.71575 77.8993 11.4131V9.21825H84.8788V32.0444H77.8993V29.8496C76.1727 31.5762 74.1534 32.4395 71.8416 32.4395C70.3491 32.4395 68.9298 32.1176 67.5836 31.4738C66.2374 30.8299 65.0523 29.9666 64.028 28.8839C63.033 27.7718 62.2283 26.4842 61.6137 25.021C61.0284 23.5578 60.7358 22.0214 60.7358 20.4118C60.7358 18.8316 61.0284 17.3391 61.6137 15.9344C62.199 14.5297 62.9891 13.3006 63.9841 12.2471C64.9791 11.1936 66.135 10.3742 67.4519 9.78891C68.7981 9.17436 70.232 8.86708 71.7538 8.86708Z" fill="white"/>
<path d="M54.7575 34.1982H63.3727L67.0649 39.1212H58.4497L54.7575 34.1982Z" fill="#FFEA28"/>
</svg>
