<svg width="385" height="218" viewBox="0 0 385 218" fill="none" xmlns="http://www.w3.org/2000/svg">
<path d="M155.729 41.9033H92.5898V177.845H53.61V41.9033H0.5V7.30871H155.729V41.9033Z" fill="white"/>
<path d="M255.464 51.4046L200.161 99.8857L257.9 178.089H209.906L171.17 125.466L163.374 132.288V177.845H124.881V7.55232H163.374V82.3448L199.187 51.4046H255.464Z" fill="white"/>
<path d="M345.764 114.747C345.764 110.362 345.033 106.301 343.571 102.566C342.272 98.83 340.323 95.5817 337.724 92.8207C335.288 90.0596 332.283 87.9482 328.71 86.4864C325.299 84.8623 321.564 84.0502 317.504 84.0502C313.443 84.0502 309.626 84.8623 306.053 86.4864C302.642 87.9482 299.638 90.0596 297.039 92.8207C294.603 95.4193 292.654 98.6676 291.192 102.566C289.893 106.301 289.243 110.362 289.243 114.747C289.243 123.68 291.842 130.988 297.039 136.673C302.236 142.195 308.977 144.956 317.26 144.956C325.543 144.956 332.365 142.114 337.724 136.429C343.084 130.745 345.764 123.517 345.764 114.747ZM311.656 49.212C325.949 49.212 337.318 53.9221 345.764 63.3422V51.161H384.5V177.845H345.764V165.664C336.181 175.247 324.975 180.038 312.144 180.038C303.861 180.038 295.983 178.251 288.512 174.678C281.041 171.105 274.463 166.314 268.779 160.304C263.257 154.133 258.79 146.986 255.38 138.866C252.131 130.745 250.507 122.218 250.507 113.285C250.507 104.515 252.131 96.2314 255.38 88.4354C258.628 80.6395 263.013 73.818 268.535 67.971C274.057 62.1241 280.473 57.5764 287.781 54.3281C295.253 50.9174 303.211 49.212 311.656 49.212Z" fill="white"/>
<path d="M217.328 189.799H265.142L285.633 217.121H237.819L217.328 189.799Z" fill="#FFEA28"/>
</svg>
