<?xml version="1.0" encoding="UTF-8"?>
<svg width="700pt" height="700pt" version="1.1" viewBox="0 0 700 700" xmlns="http://www.w3.org/2000/svg" xmlns:xlink="http://www.w3.org/1999/xlink">
 
 <g>
  <path d="m568.12 170.34h-59.465c-6.2656 0-11.648 3.8086-13.973 9.2305-7.5508-1.6133-17.828-4.75-28.59-8.043-17.012-5.2148-36.566-11.184-56.531-15.055-6.8789-14.473-27.695-29.223-83.996-29.223-24.992 0-55.105 12.441-81.668 23.414-14.82 6.1211-28.941 11.926-39.055 14.223-2.5117-4.9492-7.5938-8.375-13.512-8.375h-59.461c-8.3867 0-15.203 6.8164-15.203 15.203v147.96c0 8.3867 6.8164 15.203 15.203 15.203h59.461c0.57422 0 1.1211-0.10547 1.6797-0.16797l34.879 36.984c13.945 14.773 30.223 26.926 48.398 36.094l44.168 22.277c3.582 1.8125 7.4297 2.6992 11.246 2.6992 5.9414 0 11.805-2.1406 16.48-6.2891 4.2422-3.7539 6.9258-8.8398 7.9062-14.297l19.73 9.5195c3.6172 1.75 7.4844 2.5898 11.312 2.5898 7.4375 0 14.738-3.1719 19.824-9.0703 4.4141-5.125 6.4766-11.695 6.125-18.375 1.7344 0.28125 3.4727 0.52734 5.2031 0.52734 10.965 0 21.492-5.5586 27.664-15.449 2.707-4.3633 4.1836-9.2031 4.6562-14.164 5.0312 2.6562 10.438 4.0195 15.809 4.0195 9.7344 0 19.297-4.2383 25.984-12.27 3.4414-4.1289 5.6836-9.0039 6.8633-14.137 2.5938 2.0625 5.832 3.3477 9.3984 3.3477h59.465c8.3828-0.003906 15.207-6.832 15.207-15.215v-147.96c0-8.3828-6.8242-15.199-15.211-15.199zm-380.25 145.87h-52.539v-141.03h52.535zm290.18 31.348c-4.875 5.8438-13.125 7.1992-19.625 3.2812l-78.703-47.777c-4.4023-2.6797-10.145-1.2773-12.816 3.1367-2.6797 4.4023-1.2773 10.145 3.1367 12.816l30.602 18.578c0.003907 0 0.003907 0.003906 0.007813 0.007812l24.82 15.066c3.2188 1.9609 5.4766 5.0586 6.3516 8.7305 0.88281 3.6719 0.26562 7.457-1.7227 10.656-3.6836 5.9141-10.984 8.2578-17.418 5.4766l-32.449-13.875-30.988-18.465c-4.4297-2.6445-10.152-1.1836-12.797 3.2461-2.6328 4.4297-1.1836 10.152 3.2461 12.797l51.277 30.551c2.5977 1.5508 3.3359 3.9375 3.5469 5.2148 0.21094 1.2773 0.26562 3.7656-1.7031 6.0352-2.1953 2.5508-5.8242 3.3164-8.8789 1.8594l-46.504-22.438-14.629-8.3242c-4.4492-2.5508-10.172-0.99219-12.723 3.5-2.5508 4.4766-0.98438 10.172 3.5 12.723l21.184 12.059c1.7695 1.0039 2.9062 2.7422 3.1172 4.7773 0.21094 2.0234-0.53906 3.9648-2.0703 5.3125-1.9219 1.7031-4.6406 2.0312-6.9453 0.90234l-44.168-22.277c-16.223-8.1953-30.77-19.039-43.223-32.246l-35.133-37.254c0.082031-0.64453 0.19531-1.2812 0.19531-1.9492l-0.003906-136.12c12.23-2.3711 27.418-8.6055 44.488-15.656 24.957-10.309 53.246-21.992 74.539-21.992 21.477 0 38.598 2.3945 50.422 6.6289-1.5156-0.046874-3.0508-0.17578-4.5586-0.17578-51.754 0-142.22 37.836-146.04 39.438-3.4648 1.457-5.7148 4.8477-5.7148 8.6055 0 18.766 12.668 35.445 30.816 40.551 21.984 6.1797 54.277 9.6328 86.023-7.457l138.25 91.594c3.6641 2.4258 6.0352 6.1445 6.6641 10.492 0.64062 4.3477-0.55469 8.5938-3.3711 11.969zm15.402-29.848c-2.3242-3.1367-5.0586-5.9805-8.375-8.1797l-143.06-94.773c-3.043-2.0039-6.9531-2.0781-10.035-0.17188-27.645 16.953-56.82 13.926-76.445 8.4023-8.1406-2.2891-14.309-8.7422-16.414-16.617 21.594-8.6133 91.82-35.336 132.31-35.336 29.359 0 62.535 10.172 89.195 18.34 13.078 4.0039 24.086 7.3398 32.832 8.9453zm71.215 12.336h-52.547v-141.04h52.547z"/>
 
 </g>
</svg>
