<?xml version="1.0" encoding="UTF-8"?>
<svg width="700pt" height="700pt" version="1.1" viewBox="0 0 700 700" xmlns="http://www.w3.org/2000/svg" xmlns:xlink="http://www.w3.org/1999/xlink">
 
 <g>
  <path d="m598.08 282.24h-8.3984l-70.559-201.6h11.199c14 0 14-21.281 0-21.281l-169.68 0.003906v-36.961c0-14-21.281-14-21.281 0v36.961h-169.12c-14 0-14 21.281 0 21.281h10.641l-70 201.6-8.957-0.003907c-2.8008 0-5.6016 1.1211-7.8398 3.3594-12.883 13.441 12.316 112 101.92 112 94.641 0 123.2-115.36 94.078-115.36h-8.3984l-70.559-201.6h128.24v381.36h-139.44c-6.1602 0-10.641 5.0391-10.641 10.641v64.961c0 6.1602 5.0391 10.641 10.641 10.641h300.16c6.1602 0 10.641-5.0391 10.641-10.641l-0.003906-64.402c0-6.1602-5.0391-10.641-10.641-10.641h-139.44v-381.92h128.24l-70 201.6c-7.2812 0-11.762-1.1211-16.238 3.3594-13.441 13.441 11.762 112 101.36 112 58.238 0 104.72-47.039 104.72-104.72 0-5.6016-4.4805-10.645-10.641-10.645zm-484.4 21.281h5.0391 160.16c-12.879 96.879-152.88 95.199-165.2 0zm19.602-21.281 62.719-179.76 62.719 179.76zm356.16 244.16h-278.88v-43.121h278.88zm14.559-423.92 62.719 179.76-125.44-0.003907zm-82.32 201.04h165.2c-12.32 96.879-152.88 95.199-165.2 0z"/>
 
 </g>
</svg>
