<?xml version="1.0" encoding="UTF-8"?>
<svg width="700pt" height="700pt" version="1.1" viewBox="0 0 700 700" xmlns="http://www.w3.org/2000/svg" xmlns:xlink="http://www.w3.org/1999/xlink">
 
 <g>
  <path d="m439.6 100.8h-179.2c-18.535 0-33.602 15.062-33.602 33.602v291.2c0 18.535 15.062 33.602 33.602 33.602h179.2c18.535 0 33.602-15.062 33.602-33.602v-291.2c0-18.535-15.062-33.598-33.598-33.598zm11.199 324.8c0 6.1602-5.0391 11.199-11.199 11.199h-179.2c-6.1602 0-11.199-5.0391-11.199-11.199v-291.2c0-6.1602 5.0391-11.199 11.199-11.199h179.2c6.1602 0 11.199 5.0391 11.199 11.199zm-22.402-246.4c0 6.2148-4.9844 11.199-11.199 11.199h-134.4c-6.2148 0-11.199-4.9844-11.199-11.199 0-6.2148 4.9844-11.199 11.199-11.199h134.4c6.2148 0 11.199 4.9844 11.199 11.199zm0 44.801c0 6.2148-4.9844 11.199-11.199 11.199h-134.4c-6.2148 0-11.199-4.9844-11.199-11.199s4.9844-11.199 11.199-11.199h134.4c6.2148 0 11.199 4.9844 11.199 11.199zm-89.598 106.4c0 3.0781 2.5195 5.6016 5.6016 5.6016h11.199c15.457 0 28 12.543 28 28 0 13.551-9.6875 24.863-22.457 27.441 0 0.16797 0.054688 0.39062 0.054688 0.55859v11.199c0 6.2148-4.9844 11.199-11.199 11.199s-11.199-4.9844-11.199-11.199v-11.199h-11.199c-6.2148 0-11.199-4.9844-11.199-11.199 0-6.2148 4.9844-11.199 11.199-11.199h28c3.0781 0 5.6016-2.5195 5.6016-5.6016 0-3.0781-2.5195-5.6016-5.6016-5.6016h-11.199c-15.457 0-28-12.543-28-28 0-13.551 9.6875-24.863 22.457-27.441 0-0.16797-0.054687-0.39062-0.054687-0.55859v-11.199c0-6.2148 4.9844-11.199 11.199-11.199s11.199 4.9844 11.199 11.199v11.199h11.199c6.2148 0 11.199 4.9844 11.199 11.199s-4.9844 11.199-11.199 11.199h-28c-3.082 0.003906-5.6016 2.5234-5.6016 5.6016z"/>
  
 </g>
</svg>
